<svg version="1.1" xmlns="http://www.w3.org/2000/svg" xmlns:xlink="http://www.w3.org/1999/xlink" width="960" height="624"><defs/><g><g transform="translate(-318,-318) scale(1,1)"><rect fill="#C0C0C0" stroke="none" x="335" y="335" width="50" height="44" opacity="0.2"/></g><g transform="translate(-318,-318) scale(1,1)"><rect fill="#ffffff" stroke="none" x="328" y="328" width="50" height="44"/></g><g transform="translate(-318,-318) scale(1,1)"><path fill="none" stroke="#000000" d="M 328 328 L 378 328 L 378 372 L 328 372 L 328 328 Z Z" stroke-miterlimit="10"/></g><g transform="translate(-318,-318) scale(1,1)"><path fill="none" stroke="#000000" d="M 328 353 L 378 353" stroke-miterlimit="10"/></g><g transform="translate(-318,-318) scale(1,1)"><path fill="none" stroke="#000000" d="M 328 363 L 378 363" stroke-miterlimit="10"/></g><g transform="translate(-318,-318) scale(1,1)"><g><path fill="none" stroke="none"/><text fill="#000000" stroke="none" font-family="Arial" font-size="13px" font-style="normal" font-weight="bold" text-decoration="none" x="336" y="347.5">Cours</text></g></g><g transform="translate(-318,-318) scale(1,1)"><rect fill="#C0C0C0" stroke="none" x="527" y="335" width="103" height="44" opacity="0.2"/></g><g transform="translate(-318,-318) scale(1,1)"><rect fill="#ffffff" stroke="none" x="520" y="328" width="103" height="44"/></g><g transform="translate(-318,-318) scale(1,1)"><path fill="none" stroke="#000000" d="M 520 328 L 623 328 L 623 372 L 520 372 L 520 328 Z Z" stroke-miterlimit="10"/></g><g transform="translate(-318,-318) scale(1,1)"><path fill="none" stroke="#000000" d="M 520 353 L 623 353" stroke-miterlimit="10"/></g><g transform="translate(-318,-318) scale(1,1)"><path fill="none" stroke="#000000" d="M 520 363 L 623 363" stroke-miterlimit="10"/></g><g transform="translate(-318,-318) scale(1,1)"><g><path fill="none" stroke="none"/><text fill="#000000" stroke="none" font-family="Arial" font-size="13px" font-style="normal" font-weight="bold" text-decoration="none" x="531.5" y="347.5">Questionnaire</text></g></g><g transform="translate(-318,-318) scale(1,1)"><path fill="none" stroke="#000000" d="M 519 350 L 379 350" stroke-miterlimit="10"/></g><g transform="translate(-318,-318) scale(1,1)"><path fill="#000000" stroke="none" d="M 389.16267485762415 345.790482243984 L 379 350 L 389.16267485762415 354.209517756016 L 401 350"/></g><g transform="translate(-318,-318) scale(1,1)"><path fill="none" stroke="#000000" d="M 389.16267485762415 345.790482243984 L 379 350 L 389.16267485762415 354.209517756016 L 401 350 L 389.16267485762415 345.790482243984" stroke-miterlimit="10"/></g><g transform="translate(-318,-318) scale(1,1)"><g><path fill="none" stroke="none"/><text fill="#000000" stroke="none" font-family="Arial" font-size="13px" font-style="normal" font-weight="normal" text-decoration="none" x="486.5" y="343.5">0..*</text></g></g><g transform="translate(-318,-318) scale(1,1)"><g><path fill="none" stroke="none"/><text fill="#000000" stroke="none" font-family="Arial" font-size="13px" font-style="normal" font-weight="normal" text-decoration="none" x="396.5" y="343.5">1</text></g></g><g transform="translate(-318,-318) scale(1,1)"><rect fill="#C0C0C0" stroke="none" x="543" y="471" width="73" height="57" opacity="0.2"/></g><g transform="translate(-318,-318) scale(1,1)"><rect fill="#ffffff" stroke="none" x="536" y="464" width="73" height="57"/></g><g transform="translate(-318,-318) scale(1,1)"><path fill="none" stroke="#000000" d="M 536 464 L 609 464 L 609 521 L 536 521 L 536 464 Z Z" stroke-miterlimit="10"/></g><g transform="translate(-318,-318) scale(1,1)"><path fill="none" stroke="#000000" d="M 536 489 L 609 489" stroke-miterlimit="10"/></g><g transform="translate(-318,-318) scale(1,1)"><path fill="none" stroke="#000000" d="M 536 512 L 609 512" stroke-miterlimit="10"/></g><g transform="translate(-318,-318) scale(1,1)"><g><path fill="none" stroke="none"/><text fill="#000000" stroke="none" font-family="Arial" font-size="13px" font-style="normal" font-weight="bold" text-decoration="none" x="546.5" y="483.5">Question</text></g></g><g transform="translate(-318,-318) scale(1,1)"><g><path fill="none" stroke="none"/><text fill="#000000" stroke="none" font-family="Arial" font-size="13px" font-style="normal" font-weight="normal" text-decoration="none" x="541" y="506.5">#enonce</text></g></g><g transform="translate(-318,-318) scale(1,1)"><path fill="none" stroke="#000000" d="M 572 463 L 571 373" stroke-miterlimit="10"/></g><g transform="translate(-318,-318) scale(1,1)"><path fill="#000000" stroke="none" d="M 575.3221695731883 383.1152780575032 L 571 373 L 566.9036537065916 383.2088171226876 L 571.2444293566782 394.99864210103874"/></g><g transform="translate(-318,-318) scale(1,1)"><path fill="none" stroke="#000000" d="M 575.3221695731883 383.1152780575032 L 571 373 L 566.9036537065916 383.2088171226876 L 571.2444293566782 394.99864210103874 L 575.3221695731883 383.1152780575032" stroke-miterlimit="10"/></g><g transform="translate(-318,-318) scale(1,1)"><g><path fill="none" stroke="none"/><text fill="#000000" stroke="none" font-family="Arial" font-size="13px" font-style="normal" font-weight="normal" text-decoration="none" x="573.5" y="447.5">1..*</text></g></g><g transform="translate(-318,-318) scale(1,1)"><g><path fill="none" stroke="none"/><text fill="#000000" stroke="none" font-family="Arial" font-size="13px" font-style="normal" font-weight="normal" text-decoration="none" x="579.5" y="400.5">1</text></g></g><g transform="translate(-318,-318) scale(1,1)"><rect fill="#C0C0C0" stroke="none" x="503" y="615" width="151" height="72" opacity="0.2"/></g><g transform="translate(-318,-318) scale(1,1)"><rect fill="#ffffff" stroke="none" x="496" y="608" width="151" height="72"/></g><g transform="translate(-318,-318) scale(1,1)"><path fill="none" stroke="#000000" d="M 496 608 L 647 608 L 647 680 L 496 680 L 496 608 Z Z" stroke-miterlimit="10"/></g><g transform="translate(-318,-318) scale(1,1)"><path fill="none" stroke="#000000" d="M 496 633 L 647 633" stroke-miterlimit="10"/></g><g transform="translate(-318,-318) scale(1,1)"><path fill="none" stroke="#000000" d="M 496 671 L 647 671" stroke-miterlimit="10"/></g><g transform="translate(-318,-318) scale(1,1)"><g><path fill="none" stroke="none"/><text fill="#000000" stroke="none" font-family="Arial" font-size="13px" font-style="normal" font-weight="bold" text-decoration="none" x="506.5" y="627.5">QuestionChoixMultiple</text></g></g><g transform="translate(-318,-318) scale(1,1)"><g><path fill="none" stroke="none"/><text fill="#000000" stroke="none" font-family="Arial" font-size="13px" font-style="normal" font-weight="normal" text-decoration="none" x="501" y="650.5">-choix_possibles</text></g></g><g transform="translate(-318,-318) scale(1,1)"><g><path fill="none" stroke="none"/><text fill="#000000" stroke="none" font-family="Arial" font-size="13px" font-style="normal" font-weight="normal" text-decoration="none" x="501" y="665.5">-bonne_reponse</text></g></g><g transform="translate(-318,-318) scale(1,1)"><path fill="none" stroke="#000000" d="M 571 607 L 572 522" stroke-miterlimit="10"/></g><g transform="translate(-318,-318) scale(1,1)"><path fill="#FFFFFF" stroke="none" d="M 580.1793477254358 542.4229838854759 L 572 522 L 563.3424418448549 542.2249026398221"/></g><g transform="translate(-318,-318) scale(1,1)"><path fill="none" stroke="#000000" d="M 580.1793477254358 542.4229838854759 L 572 522 L 563.3424418448549 542.2249026398221 L 580.1793477254358 542.4229838854759" stroke-miterlimit="10"/></g><g transform="translate(-318,-318) scale(1,1)"><rect fill="#C0C0C0" stroke="none" x="751" y="479" width="50" height="44" opacity="0.2"/></g><g transform="translate(-318,-318) scale(1,1)"><rect fill="#ffffff" stroke="none" x="744" y="472" width="50" height="44"/></g><g transform="translate(-318,-318) scale(1,1)"><path fill="none" stroke="#000000" d="M 744 472 L 794 472 L 794 516 L 744 516 L 744 472 Z Z" stroke-miterlimit="10"/></g><g transform="translate(-318,-318) scale(1,1)"><path fill="none" stroke="#000000" d="M 744 497 L 794 497" stroke-miterlimit="10"/></g><g transform="translate(-318,-318) scale(1,1)"><path fill="none" stroke="#000000" d="M 744 507 L 794 507" stroke-miterlimit="10"/></g><g transform="translate(-318,-318) scale(1,1)"><g><path fill="none" stroke="none"/><text fill="#000000" stroke="none" font-family="Arial" font-size="13px" font-style="normal" font-weight="bold" text-decoration="none" x="751.5" y="491.5">Media</text></g></g><g transform="translate(-318,-318) scale(1,1)"><path fill="none" stroke="#000000" d="M 743 494 L 610 492" stroke-miterlimit="10"/></g><g transform="translate(-318,-318) scale(1,1)"><path fill="#FFFFFF" stroke="none" d="M 620.2248198765219 487.94376301324945 L 610 492 L 620.0982321505306 496.3618467916686 L 631.9975130002182 492.3307896691762"/></g><g transform="translate(-318,-318) scale(1,1)"><path fill="none" stroke="#000000" d="M 620.2248198765219 487.94376301324945 L 610 492 L 620.0982321505306 496.3618467916686 L 631.9975130002182 492.3307896691762 L 620.2248198765219 487.94376301324945" stroke-miterlimit="10"/></g><g transform="translate(-318,-318) scale(1,1)"><rect fill="#C0C0C0" stroke="none" x="543" y="767" width="63" height="44" opacity="0.2"/></g><g transform="translate(-318,-318) scale(1,1)"><rect fill="#ffffff" stroke="none" x="536" y="760" width="63" height="44"/></g><g transform="translate(-318,-318) scale(1,1)"><path fill="none" stroke="#000000" d="M 536 760 L 599 760 L 599 804 L 536 804 L 536 760 Z Z" stroke-miterlimit="10"/></g><g transform="translate(-318,-318) scale(1,1)"><path fill="none" stroke="#000000" d="M 536 785 L 599 785" stroke-miterlimit="10"/></g><g transform="translate(-318,-318) scale(1,1)"><path fill="none" stroke="#000000" d="M 536 795 L 599 795" stroke-miterlimit="10"/></g><g transform="translate(-318,-318) scale(1,1)"><g><path fill="none" stroke="none"/><text fill="#000000" stroke="none" font-family="Arial" font-size="13px" font-style="normal" font-weight="bold" text-decoration="none" x="542" y="779.5">Reponse</text></g></g><g transform="translate(-318,-318) scale(1,1)"><path fill="none" stroke="#000000" d="M 568 759 L 570 681" stroke-miterlimit="10"/></g><g transform="translate(-318,-318) scale(1,1)"><path fill="#000000" stroke="none" d="M 573.9476388509854 691.267236604958 L 570 681 L 565.5313695737947 691.0514348286198 L 569.4360827825639 702.9927714800086"/></g><g transform="translate(-318,-318) scale(1,1)"><path fill="none" stroke="#000000" d="M 573.9476388509854 691.267236604958 L 570 681 L 565.5313695737947 691.0514348286198 L 569.4360827825639 702.9927714800086 L 573.9476388509854 691.267236604958" stroke-miterlimit="10"/></g><g transform="translate(-318,-318) scale(1,1)"><g><path fill="none" stroke="none"/><text fill="#000000" stroke="none" font-family="Arial" font-size="13px" font-style="normal" font-weight="normal" text-decoration="none" x="570.5" y="743.5">1..*</text></g></g><g transform="translate(-318,-318) scale(1,1)"><g><path fill="none" stroke="none"/><text fill="#000000" stroke="none" font-family="Arial" font-size="13px" font-style="normal" font-weight="normal" text-decoration="none" x="577.5" y="708.5">1</text></g></g><g transform="translate(-318,-318) scale(1,1)"><rect fill="#C0C0C0" stroke="none" x="375" y="895" width="119" height="44" opacity="0.2"/></g><g transform="translate(-318,-318) scale(1,1)"><rect fill="#ffffff" stroke="none" x="368" y="888" width="119" height="44"/></g><g transform="translate(-318,-318) scale(1,1)"><path fill="none" stroke="#000000" d="M 368 888 L 487 888 L 487 932 L 368 932 L 368 888 Z Z" stroke-miterlimit="10"/></g><g transform="translate(-318,-318) scale(1,1)"><path fill="none" stroke="#000000" d="M 368 913 L 487 913" stroke-miterlimit="10"/></g><g transform="translate(-318,-318) scale(1,1)"><path fill="none" stroke="#000000" d="M 368 923 L 487 923" stroke-miterlimit="10"/></g><g transform="translate(-318,-318) scale(1,1)"><g><path fill="none" stroke="none"/><text fill="#000000" stroke="none" font-family="Arial" font-size="13px" font-style="normal" font-weight="bold" text-decoration="none" x="375.5" y="907.5">ReponseTextuelle</text></g></g><g transform="translate(-318,-318) scale(1,1)"><path fill="none" stroke="#000000" d="M 452 887 L 542 805" stroke-miterlimit="10"/></g><g transform="translate(-318,-318) scale(1,1)"><path fill="#FFFFFF" stroke="none" d="M 532.645712131528 824.9122399160356 L 542 805 L 521.3054397417902 812.4655994882745"/></g><g transform="translate(-318,-318) scale(1,1)"><path fill="none" stroke="#000000" d="M 532.645712131528 824.9122399160356 L 542 805 L 521.3054397417902 812.4655994882745 L 532.645712131528 824.9122399160356" stroke-miterlimit="10"/></g><g transform="translate(-318,-318) scale(1,1)"><rect fill="#C0C0C0" stroke="none" x="647" y="895" width="100" height="44" opacity="0.2"/></g><g transform="translate(-318,-318) scale(1,1)"><rect fill="#ffffff" stroke="none" x="640" y="888" width="100" height="44"/></g><g transform="translate(-318,-318) scale(1,1)"><path fill="none" stroke="#000000" d="M 640 888 L 740 888 L 740 932 L 640 932 L 640 888 Z Z" stroke-miterlimit="10"/></g><g transform="translate(-318,-318) scale(1,1)"><path fill="none" stroke="#000000" d="M 640 913 L 740 913" stroke-miterlimit="10"/></g><g transform="translate(-318,-318) scale(1,1)"><path fill="none" stroke="#000000" d="M 640 923 L 740 923" stroke-miterlimit="10"/></g><g transform="translate(-318,-318) scale(1,1)"><g><path fill="none" stroke="none"/><text fill="#000000" stroke="none" font-family="Arial" font-size="13px" font-style="normal" font-weight="bold" text-decoration="none" x="647" y="907.5">ReponseMedia</text></g></g><g transform="translate(-318,-318) scale(1,1)"><path fill="none" stroke="#000000" d="M 668 887 L 589 805" stroke-miterlimit="10"/></g><g transform="translate(-318,-318) scale(1,1)"><path fill="#FFFFFF" stroke="none" d="M 609.1649728526706 813.796241802671 L 589 805 L 597.0389068189407 825.4786712741914"/></g><g transform="translate(-318,-318) scale(1,1)"><path fill="none" stroke="#000000" d="M 609.1649728526706 813.796241802671 L 589 805 L 597.0389068189407 825.4786712741914 L 609.1649728526706 813.796241802671" stroke-miterlimit="10"/></g><g transform="translate(-318,-318) scale(1,1)"><path fill="none" stroke="#000000" d="M 765 517 L 694 887" stroke-miterlimit="10"/></g><g transform="translate(-318,-318) scale(1,1)"><path fill="#000000" stroke="none" d="M 691.7811005534443 876.226120232429 L 694 887 L 700.0492845979073 877.8127177112315 L 698.1459790119388 865.3941938814456"/></g><g transform="translate(-318,-318) scale(1,1)"><path fill="none" stroke="#000000" d="M 691.7811005534443 876.226120232429 L 694 887 L 700.0492845979073 877.8127177112315 L 698.1459790119388 865.3941938814456 L 691.7811005534443 876.226120232429" stroke-miterlimit="10"/></g><g transform="translate(-318,-318) scale(1,1)"><rect fill="#C0C0C0" stroke="none" x="1087" y="543" width="72" height="44" opacity="0.2"/></g><g transform="translate(-318,-318) scale(1,1)"><rect fill="#ffffff" stroke="none" x="1080" y="536" width="72" height="44"/></g><g transform="translate(-318,-318) scale(1,1)"><path fill="none" stroke="#000000" d="M 1080 536 L 1152 536 L 1152 580 L 1080 580 L 1080 536 Z Z" stroke-miterlimit="10"/></g><g transform="translate(-318,-318) scale(1,1)"><path fill="none" stroke="#000000" d="M 1080 561 L 1152 561" stroke-miterlimit="10"/></g><g transform="translate(-318,-318) scale(1,1)"><path fill="none" stroke="#000000" d="M 1080 571 L 1152 571" stroke-miterlimit="10"/></g><g transform="translate(-318,-318) scale(1,1)"><g><path fill="none" stroke="none"/><text fill="#000000" stroke="none" font-family="Arial" font-size="13px" font-style="normal" font-weight="bold" text-decoration="none" x="1087" y="555.5">Utilisateur</text></g></g><g transform="translate(-318,-318) scale(1,1)"><rect fill="#C0C0C0" stroke="none" x="991" y="687" width="61" height="44" opacity="0.2"/></g><g transform="translate(-318,-318) scale(1,1)"><rect fill="#ffffff" stroke="none" x="984" y="680" width="61" height="44"/></g><g transform="translate(-318,-318) scale(1,1)"><path fill="none" stroke="#000000" d="M 984 680 L 1045 680 L 1045 724 L 984 724 L 984 680 Z Z" stroke-miterlimit="10"/></g><g transform="translate(-318,-318) scale(1,1)"><path fill="none" stroke="#000000" d="M 984 705 L 1045 705" stroke-miterlimit="10"/></g><g transform="translate(-318,-318) scale(1,1)"><path fill="none" stroke="#000000" d="M 984 715 L 1045 715" stroke-miterlimit="10"/></g><g transform="translate(-318,-318) scale(1,1)"><g><path fill="none" stroke="none"/><text fill="#000000" stroke="none" font-family="Arial" font-size="13px" font-style="normal" font-weight="bold" text-decoration="none" x="990.5" y="699.5">Etudiant</text></g></g><g transform="translate(-318,-318) scale(1,1)"><rect fill="#C0C0C0" stroke="none" x="1199" y="687" width="76" height="44" opacity="0.2"/></g><g transform="translate(-318,-318) scale(1,1)"><rect fill="#ffffff" stroke="none" x="1192" y="680" width="76" height="44"/></g><g transform="translate(-318,-318) scale(1,1)"><path fill="none" stroke="#000000" d="M 1192 680 L 1268 680 L 1268 724 L 1192 724 L 1192 680 Z Z" stroke-miterlimit="10"/></g><g transform="translate(-318,-318) scale(1,1)"><path fill="none" stroke="#000000" d="M 1192 705 L 1268 705" stroke-miterlimit="10"/></g><g transform="translate(-318,-318) scale(1,1)"><path fill="none" stroke="#000000" d="M 1192 715 L 1268 715" stroke-miterlimit="10"/></g><g transform="translate(-318,-318) scale(1,1)"><g><path fill="none" stroke="none"/><text fill="#000000" stroke="none" font-family="Arial" font-size="13px" font-style="normal" font-weight="bold" text-decoration="none" x="1198.5" y="699.5">Professeur</text></g></g><g transform="translate(-318,-318) scale(1,1)"><path fill="none" stroke="#000000" d="M 1030 679 L 1100 581" stroke-miterlimit="10"/></g><g transform="translate(-318,-318) scale(1,1)"><path fill="#FFFFFF" stroke="none" d="M 1095.0369814362186 602.4328823711502 L 1100 581 L 1081.3352794533816 592.6459523834094"/></g><g transform="translate(-318,-318) scale(1,1)"><path fill="none" stroke="#000000" d="M 1095.0369814362186 602.4328823711502 L 1100 581 L 1081.3352794533816 592.6459523834094 L 1095.0369814362186 602.4328823711502" stroke-miterlimit="10"/></g><g transform="translate(-318,-318) scale(1,1)"><path fill="none" stroke="#000000" d="M 1212 679 L 1134 581" stroke-miterlimit="10"/></g><g transform="translate(-318,-318) scale(1,1)"><path fill="#FFFFFF" stroke="none" d="M 1153.2447836092122 591.660126820756 L 1134 581 L 1140.0702690292765 602.1459649558067"/></g><g transform="translate(-318,-318) scale(1,1)"><path fill="none" stroke="#000000" d="M 1153.2447836092122 591.660126820756 L 1134 581 L 1140.0702690292765 602.1459649558067 L 1153.2447836092122 591.660126820756" stroke-miterlimit="10"/></g></g></svg>