<svg version="1.1" xmlns="http://www.w3.org/2000/svg" xmlns:xlink="http://www.w3.org/1999/xlink" width="948" height="500"><defs/><g><g transform="translate(-110,-222) scale(1,1)"><rect fill="#C0C0C0" stroke="none" x="383" y="239" width="268.79999999999995" height="15" opacity="0.2"/></g><g transform="translate(-110,-222) scale(1,1)"><rect fill="#C0C0C0" stroke="none" x="383" y="253" width="672" height="466" opacity="0.2"/></g><g transform="translate(-110,-222) scale(1,1)"><rect fill="#ffffff" stroke="none" x="376" y="247" width="672" height="465"/></g><g transform="translate(-110,-222) scale(1,1)"><path fill="none" stroke="#000000" d="M 376 247 L 1048 247 L 1048 712 L 376 712 L 376 247 Z Z" stroke-miterlimit="10"/></g><g transform="translate(-110,-222) scale(1,1)"><rect fill="#ffffff" stroke="none" x="376" y="232" width="268.79999999999995" height="15"/></g><g transform="translate(-110,-222) scale(1,1)"><path fill="none" stroke="#000000" d="M 376 232 L 644.8 232 L 644.8 247 L 376 247 L 376 232 Z Z" stroke-miterlimit="10"/></g><g transform="translate(-110,-222) scale(1,1)"><rect fill="#ffffff" stroke="none" x="376" y="246" width="672" height="466"/></g><g transform="translate(-110,-222) scale(1,1)"><path fill="none" stroke="#000000" d="M 376 246 L 1048 246 L 1048 712 L 376 712 L 376 246 Z Z" stroke-miterlimit="10"/></g><g transform="translate(-110,-222) scale(1,1)"><g><path fill="none" stroke="none"/><text fill="#000000" stroke="none" font-family="Arial" font-size="13px" font-style="normal" font-weight="bold" text-decoration="none" x="685.5" y="266.5">evaluator</text></g></g><g transform="translate(-110,-222) scale(1,1)"><path fill="#ffffff" stroke="none" d="M 149.82072727272728 353.68 C 149.82072727272728 348.886167936 153.70656959767274 345 158.5 345 C 163.29343040232726 345 167.17927272727272 348.886167936 167.17927272727272 353.68 C 167.17927272727272 358.473832064 163.29343040232726 362.36 158.5 362.36 C 153.70656959767274 362.36 149.82072727272728 358.473832064 149.82072727272728 353.68 Z"/></g><g transform="translate(-110,-222) scale(1,1)"><path fill="none" stroke="#000000" d="M 149.82072727272728 353.68 C 149.82072727272728 348.886167936 153.70656959767274 345 158.5 345 C 163.29343040232726 345 167.17927272727272 348.886167936 167.17927272727272 353.68 C 167.17927272727272 358.473832064 163.29343040232726 362.36 158.5 362.36 C 153.70656959767274 362.36 149.82072727272728 358.473832064 149.82072727272728 353.68 Z" stroke-miterlimit="10"/></g><g transform="translate(-110,-222) scale(1,1)"><path fill="none" stroke="#000000" d="M 158.5 362.36 L 158.5 379.64" stroke-miterlimit="10"/></g><g transform="translate(-110,-222) scale(1,1)"><path fill="none" stroke="#000000" d="M 149.31018181818183 368.84 L 167.68981818181817 368.84" stroke-miterlimit="10"/></g><g transform="translate(-110,-222) scale(1,1)"><path fill="none" stroke="#000000" d="M 158.5 379.64 L 145.73636363636365 397" stroke-miterlimit="10"/></g><g transform="translate(-110,-222) scale(1,1)"><path fill="none" stroke="#000000" d="M 158.5 379.64 L 171.26363636363635 397" stroke-miterlimit="10"/></g><g transform="translate(-110,-222) scale(1,1)"><g><path fill="none" stroke="none"/><text fill="#000000" stroke="none" font-family="Arial" font-size="13px" font-style="normal" font-weight="bold" text-decoration="none" x="134.5" y="417.5">Etudiant</text></g></g><g transform="translate(-110,-222) scale(1,1)"><path fill="#ffffff" stroke="none" d="M 150.82072727272728 473.68 C 150.82072727272728 468.886167936 154.70656959767274 465 159.5 465 C 164.29343040232726 465 168.17927272727272 468.886167936 168.17927272727272 473.68 C 168.17927272727272 478.473832064 164.29343040232726 482.36 159.5 482.36 C 154.70656959767274 482.36 150.82072727272728 478.473832064 150.82072727272728 473.68 Z"/></g><g transform="translate(-110,-222) scale(1,1)"><path fill="none" stroke="#000000" d="M 150.82072727272728 473.68 C 150.82072727272728 468.886167936 154.70656959767274 465 159.5 465 C 164.29343040232726 465 168.17927272727272 468.886167936 168.17927272727272 473.68 C 168.17927272727272 478.473832064 164.29343040232726 482.36 159.5 482.36 C 154.70656959767274 482.36 150.82072727272728 478.473832064 150.82072727272728 473.68 Z" stroke-miterlimit="10"/></g><g transform="translate(-110,-222) scale(1,1)"><path fill="none" stroke="#000000" d="M 159.5 482.36 L 159.5 499.64" stroke-miterlimit="10"/></g><g transform="translate(-110,-222) scale(1,1)"><path fill="none" stroke="#000000" d="M 150.31018181818183 488.84 L 168.68981818181817 488.84" stroke-miterlimit="10"/></g><g transform="translate(-110,-222) scale(1,1)"><path fill="none" stroke="#000000" d="M 159.5 499.64 L 146.73636363636365 517" stroke-miterlimit="10"/></g><g transform="translate(-110,-222) scale(1,1)"><path fill="none" stroke="#000000" d="M 159.5 499.64 L 172.26363636363635 517" stroke-miterlimit="10"/></g><g transform="translate(-110,-222) scale(1,1)"><g><path fill="none" stroke="none"/><text fill="#000000" stroke="none" font-family="Arial" font-size="13px" font-style="normal" font-weight="bold" text-decoration="none" x="127" y="537.5">Enseignant</text></g></g><g transform="translate(-110,-222) scale(1,1)"><path fill="#C0C0C0" stroke="none" d="M 647 328 C 647 318.6111584 675.4299152 311 710.5 311 C 745.5700848 311 774 318.6111584 774 328 C 774 337.3888416 745.5700848 345 710.5 345 C 675.4299152 345 647 337.3888416 647 328 Z" opacity="0.2"/></g><g transform="translate(-110,-222) scale(1,1)"><path fill="#ffffff" stroke="none" d="M 640 321 C 640 311.6111584 668.4299152 304 703.5 304 C 738.5700848 304 767 311.6111584 767 321 C 767 330.3888416 738.5700848 338 703.5 338 C 668.4299152 338 640 330.3888416 640 321 Z"/></g><g transform="translate(-110,-222) scale(1,1)"><path fill="none" stroke="#000000" d="M 640 321 C 640 311.6111584 668.4299152 304 703.5 304 C 738.5700848 304 767 311.6111584 767 321 C 767 330.3888416 738.5700848 338 703.5 338 C 668.4299152 338 640 330.3888416 640 321 Z" stroke-miterlimit="10"/></g><g transform="translate(-110,-222) scale(1,1)"><g><path fill="none" stroke="none"/><text fill="#000000" stroke="none" font-family="Arial" font-size="13px" font-style="normal" font-weight="bold" text-decoration="none" x="665" y="328">Se connecter</text></g></g><g transform="translate(-110,-222) scale(1,1)"><path fill="none" stroke="#000000" d="M 190 379 L 639 328" stroke-miterlimit="10"/></g><g transform="translate(-110,-222) scale(1,1)"><path fill="none" stroke="#000000" d="M 200 489 L 649 339" stroke-miterlimit="10"/></g><g transform="translate(-110,-222) scale(1,1)"><path fill="#C0C0C0" stroke="none" d="M 623 448 C 623 438.6111584 666.652232 431 720.5 431 C 774.347768 431 818 438.6111584 818 448 C 818 457.3888416 774.347768 465 720.5 465 C 666.652232 465 623 457.3888416 623 448 Z" opacity="0.2"/></g><g transform="translate(-110,-222) scale(1,1)"><path fill="#ffffff" stroke="none" d="M 616 441 C 616 431.6111584 659.652232 424 713.5 424 C 767.347768 424 811 431.6111584 811 441 C 811 450.3888416 767.347768 458 713.5 458 C 659.652232 458 616 450.3888416 616 441 Z"/></g><g transform="translate(-110,-222) scale(1,1)"><path fill="none" stroke="#000000" d="M 616 441 C 616 431.6111584 659.652232 424 713.5 424 C 767.347768 424 811 431.6111584 811 441 C 811 450.3888416 767.347768 458 713.5 458 C 659.652232 458 616 450.3888416 616 441 Z" stroke-miterlimit="10"/></g><g transform="translate(-110,-222) scale(1,1)"><g><path fill="none" stroke="none"/><text fill="#000000" stroke="none" font-family="Arial" font-size="13px" font-style="normal" font-weight="bold" text-decoration="none" x="654.5" y="448">S'inscrire à un cours</text></g></g><g transform="translate(-110,-222) scale(1,1)"><path fill="none" stroke="#000000" d="M 190 386 L 615 431" stroke-miterlimit="10"/></g><g transform="translate(-110,-222) scale(1,1)"><path fill="none" stroke="#000000" d="M 712 423 L 705 339" stroke-miterlimit="10" stroke-dasharray="3"/></g><g transform="translate(-110,-222) scale(1,1)"><path fill="none" stroke="#000000" d="M 710.0389412741632 348.77798909978605 L 705 339 L 701.6489871461347 349.47715194378844" stroke-miterlimit="10"/></g><g transform="translate(-110,-222) scale(1,1)"><g><path fill="none" stroke="none"/><text fill="#000000" stroke="none" font-family="Arial" font-size="13px" font-style="normal" font-weight="normal" text-decoration="none" x="650.5" y="389.5">«include»</text></g></g><g transform="translate(-110,-222) scale(1,1)"><path fill="#C0C0C0" stroke="none" d="M 463 544 C 463 534.6111584 495.0116368 527 534.5 527 C 573.9883632 527 606 534.6111584 606 544 C 606 553.3888416 573.9883632 561 534.5 561 C 495.0116368 561 463 553.3888416 463 544 Z" opacity="0.2"/></g><g transform="translate(-110,-222) scale(1,1)"><path fill="#ffffff" stroke="none" d="M 456 537 C 456 527.6111584 488.0116368 520 527.5 520 C 566.9883632 520 599 527.6111584 599 537 C 599 546.3888416 566.9883632 554 527.5 554 C 488.0116368 554 456 546.3888416 456 537 Z"/></g><g transform="translate(-110,-222) scale(1,1)"><path fill="none" stroke="#000000" d="M 456 537 C 456 527.6111584 488.0116368 520 527.5 520 C 566.9883632 520 599 527.6111584 599 537 C 599 546.3888416 566.9883632 554 527.5 554 C 488.0116368 554 456 546.3888416 456 537 Z" stroke-miterlimit="10"/></g><g transform="translate(-110,-222) scale(1,1)"><g><path fill="none" stroke="none"/><text fill="#000000" stroke="none" font-family="Arial" font-size="13px" font-style="normal" font-weight="bold" text-decoration="none" x="485" y="544">Créer un cours</text></g></g><g transform="translate(-110,-222) scale(1,1)"><path fill="none" stroke="#000000" d="M 200 507 L 455 530" stroke-miterlimit="10"/></g><g transform="translate(-110,-222) scale(1,1)"><path fill="none" stroke="#000000" d="M 678 459 L 562 519" stroke-miterlimit="10" stroke-dasharray="3"/></g><g transform="translate(-110,-222) scale(1,1)"><path fill="none" stroke="#000000" d="M 569.0927181756794 510.5920663132736 L 562 519 L 572.9606160447189 518.0700021934169" stroke-miterlimit="10"/></g><g transform="translate(-110,-222) scale(1,1)"><g><path fill="none" stroke="none"/><text fill="#000000" stroke="none" font-family="Arial" font-size="13px" font-style="normal" font-weight="normal" text-decoration="none" x="605.5" y="521.5">«include»</text></g></g><g transform="translate(-110,-222) scale(1,1)"><path fill="#C0C0C0" stroke="none" d="M 431 648 C 431 638.6111584 478.6816688 631 537.5 631 C 596.3183312 631 644 638.6111584 644 648 C 644 657.3888416 596.3183312 665 537.5 665 C 478.6816688 665 431 657.3888416 431 648 Z" opacity="0.2"/></g><g transform="translate(-110,-222) scale(1,1)"><path fill="#ffffff" stroke="none" d="M 424 641 C 424 631.6111584 471.6816688 624 530.5 624 C 589.3183312 624 637 631.6111584 637 641 C 637 650.3888416 589.3183312 658 530.5 658 C 471.6816688 658 424 650.3888416 424 641 Z"/></g><g transform="translate(-110,-222) scale(1,1)"><path fill="none" stroke="#000000" d="M 424 641 C 424 631.6111584 471.6816688 624 530.5 624 C 589.3183312 624 637 631.6111584 637 641 C 637 650.3888416 589.3183312 658 530.5 658 C 471.6816688 658 424 650.3888416 424 641 Z" stroke-miterlimit="10"/></g><g transform="translate(-110,-222) scale(1,1)"><g><path fill="none" stroke="none"/><text fill="#000000" stroke="none" font-family="Arial" font-size="13px" font-style="normal" font-weight="bold" text-decoration="none" x="465.5" y="648">Créer un questionnaire</text></g></g><g transform="translate(-110,-222) scale(1,1)"><path fill="none" stroke="#000000" d="M 529 623 L 528 555" stroke-miterlimit="10" stroke-dasharray="3"/></g><g transform="translate(-110,-222) scale(1,1)"><path fill="none" stroke="#000000" d="M 532.3584975915118 565.0996781505544 L 528 555 L 523.9403722946846 565.2234741108018" stroke-miterlimit="10"/></g><g transform="translate(-110,-222) scale(1,1)"><g><path fill="none" stroke="none"/><text fill="#000000" stroke="none" font-family="Arial" font-size="13px" font-style="normal" font-weight="normal" text-decoration="none" x="470.5" y="594.5">«include»</text></g></g><g transform="translate(-110,-222) scale(1,1)"><path fill="#C0C0C0" stroke="none" d="M 751 544 C 751 534.6111584 810.7699792 527 884.5 527 C 958.2300208 527 1018 534.6111584 1018 544 C 1018 553.3888416 958.2300208 561 884.5 561 C 810.7699792 561 751 553.3888416 751 544 Z" opacity="0.2"/></g><g transform="translate(-110,-222) scale(1,1)"><path fill="#ffffff" stroke="none" d="M 744 537 C 744 527.6111584 803.7699792 520 877.5 520 C 951.2300208 520 1011 527.6111584 1011 537 C 1011 546.3888416 951.2300208 554 877.5 554 C 803.7699792 554 744 546.3888416 744 537 Z"/></g><g transform="translate(-110,-222) scale(1,1)"><path fill="none" stroke="#000000" d="M 744 537 C 744 527.6111584 803.7699792 520 877.5 520 C 951.2300208 520 1011 527.6111584 1011 537 C 1011 546.3888416 951.2300208 554 877.5 554 C 803.7699792 554 744 546.3888416 744 537 Z" stroke-miterlimit="10"/></g><g transform="translate(-110,-222) scale(1,1)"><g><path fill="none" stroke="none"/><text fill="#000000" stroke="none" font-family="Arial" font-size="13px" font-style="normal" font-weight="bold" text-decoration="none" x="795" y="544">Répondre à un questionnaire</text></g></g><g transform="translate(-110,-222) scale(1,1)"><path fill="none" stroke="#000000" d="M 846 519 L 744 459" stroke-miterlimit="10" stroke-dasharray="3"/></g><g transform="translate(-110,-222) scale(1,1)"><path fill="none" stroke="#000000" d="M 754.893867402736 460.52435330931087 L 744 459 L 750.6252469518838 467.78100807575953" stroke-miterlimit="10"/></g><g transform="translate(-110,-222) scale(1,1)"><g><path fill="none" stroke="none"/><text fill="#000000" stroke="none" font-family="Arial" font-size="13px" font-style="normal" font-weight="normal" text-decoration="none" x="752.5" y="520.5">«extend»</text></g></g><g transform="translate(-110,-222) scale(1,1)"><path fill="#C0C0C0" stroke="none" d="M 823 632 C 823 622.6111584 854.1162064 615 892.5 615 C 930.8837936 615 962 622.6111584 962 632 C 962 641.3888416 930.8837936 649 892.5 649 C 854.1162064 649 823 641.3888416 823 632 Z" opacity="0.2"/></g><g transform="translate(-110,-222) scale(1,1)"><path fill="#ffffff" stroke="none" d="M 816 625 C 816 615.6111584 847.1162064 608 885.5 608 C 923.8837936 608 955 615.6111584 955 625 C 955 634.3888416 923.8837936 642 885.5 642 C 847.1162064 642 816 634.3888416 816 625 Z"/></g><g transform="translate(-110,-222) scale(1,1)"><path fill="none" stroke="#000000" d="M 816 625 C 816 615.6111584 847.1162064 608 885.5 608 C 923.8837936 608 955 615.6111584 955 625 C 955 634.3888416 923.8837936 642 885.5 642 C 847.1162064 642 816 634.3888416 816 625 Z" stroke-miterlimit="10"/></g><g transform="translate(-110,-222) scale(1,1)"><g><path fill="none" stroke="none"/><text fill="#000000" stroke="none" font-family="Arial" font-size="13px" font-style="normal" font-weight="bold" text-decoration="none" x="843.5" y="632">Voir ses notes</text></g></g><g transform="translate(-110,-222) scale(1,1)"><path fill="none" stroke="#000000" d="M 883 607 L 879 555" stroke-miterlimit="10" stroke-dasharray="3"/></g><g transform="translate(-110,-222) scale(1,1)"><path fill="none" stroke="#000000" d="M 883.976560141318 564.8098852776087 L 879 555 L 875.5823230204494 565.4555958253678" stroke-miterlimit="10"/></g><g transform="translate(-110,-222) scale(1,1)"><g><path fill="none" stroke="none"/><text fill="#000000" stroke="none" font-family="Arial" font-size="13px" font-style="normal" font-weight="normal" text-decoration="none" x="823.5" y="589.5">«include»</text></g></g></g></svg>