<svg version="1.1" xmlns="http://www.w3.org/2000/svg" xmlns:xlink="http://www.w3.org/1999/xlink" width="964" height="676"><defs/><g><g transform="translate(-110,-222) scale(1,1)"><rect fill="#C0C0C0" stroke="none" x="383" y="239" width="275.20000000000005" height="15" opacity="0.2"/></g><g transform="translate(-110,-222) scale(1,1)"><rect fill="#C0C0C0" stroke="none" x="383" y="253" width="688" height="642" opacity="0.2"/></g><g transform="translate(-110,-222) scale(1,1)"><rect fill="#ffffff" stroke="none" x="376" y="247" width="688" height="641"/></g><g transform="translate(-110,-222) scale(1,1)"><path fill="none" stroke="#000000" d="M 376 247 L 1064 247 L 1064 888 L 376 888 L 376 247 Z Z" stroke-miterlimit="10"/></g><g transform="translate(-110,-222) scale(1,1)"><rect fill="#ffffff" stroke="none" x="376" y="232" width="275.20000000000005" height="15"/></g><g transform="translate(-110,-222) scale(1,1)"><path fill="none" stroke="#000000" d="M 376 232 L 651.2 232 L 651.2 247 L 376 247 L 376 232 Z Z" stroke-miterlimit="10"/></g><g transform="translate(-110,-222) scale(1,1)"><rect fill="#ffffff" stroke="none" x="376" y="246" width="688" height="642"/></g><g transform="translate(-110,-222) scale(1,1)"><path fill="none" stroke="#000000" d="M 376 246 L 1064 246 L 1064 888 L 376 888 L 376 246 Z Z" stroke-miterlimit="10"/></g><g transform="translate(-110,-222) scale(1,1)"><g><path fill="none" stroke="none"/><text fill="#000000" stroke="none" font-family="Arial" font-size="13px" font-style="normal" font-weight="bold" text-decoration="none" x="693.5" y="266.5">evaluator</text></g></g><g transform="translate(-110,-222) scale(1,1)"><path fill="#ffffff" stroke="none" d="M 149.82072727272728 353.68 C 149.82072727272728 348.886167936 153.70656959767274 345 158.5 345 C 163.29343040232726 345 167.17927272727272 348.886167936 167.17927272727272 353.68 C 167.17927272727272 358.473832064 163.29343040232726 362.36 158.5 362.36 C 153.70656959767274 362.36 149.82072727272728 358.473832064 149.82072727272728 353.68 Z"/></g><g transform="translate(-110,-222) scale(1,1)"><path fill="none" stroke="#000000" d="M 149.82072727272728 353.68 C 149.82072727272728 348.886167936 153.70656959767274 345 158.5 345 C 163.29343040232726 345 167.17927272727272 348.886167936 167.17927272727272 353.68 C 167.17927272727272 358.473832064 163.29343040232726 362.36 158.5 362.36 C 153.70656959767274 362.36 149.82072727272728 358.473832064 149.82072727272728 353.68 Z" stroke-miterlimit="10"/></g><g transform="translate(-110,-222) scale(1,1)"><path fill="none" stroke="#000000" d="M 158.5 362.36 L 158.5 379.64" stroke-miterlimit="10"/></g><g transform="translate(-110,-222) scale(1,1)"><path fill="none" stroke="#000000" d="M 149.31018181818183 368.84 L 167.68981818181817 368.84" stroke-miterlimit="10"/></g><g transform="translate(-110,-222) scale(1,1)"><path fill="none" stroke="#000000" d="M 158.5 379.64 L 145.73636363636365 397" stroke-miterlimit="10"/></g><g transform="translate(-110,-222) scale(1,1)"><path fill="none" stroke="#000000" d="M 158.5 379.64 L 171.26363636363635 397" stroke-miterlimit="10"/></g><g transform="translate(-110,-222) scale(1,1)"><g><path fill="none" stroke="none"/><text fill="#000000" stroke="none" font-family="Arial" font-size="13px" font-style="normal" font-weight="bold" text-decoration="none" x="134.5" y="417.5">Etudiant</text></g></g><g transform="translate(-110,-222) scale(1,1)"><path fill="#ffffff" stroke="none" d="M 150.82072727272728 545.6800000000001 C 150.82072727272728 540.8861679360001 154.70656959767274 537 159.5 537 C 164.29343040232726 537 168.17927272727272 540.8861679360001 168.17927272727272 545.6800000000001 C 168.17927272727272 550.473832064 164.29343040232726 554.36 159.5 554.36 C 154.70656959767274 554.36 150.82072727272728 550.473832064 150.82072727272728 545.6800000000001 Z"/></g><g transform="translate(-110,-222) scale(1,1)"><path fill="none" stroke="#000000" d="M 150.82072727272728 545.6800000000001 C 150.82072727272728 540.8861679360001 154.70656959767274 537 159.5 537 C 164.29343040232726 537 168.17927272727272 540.8861679360001 168.17927272727272 545.6800000000001 C 168.17927272727272 550.473832064 164.29343040232726 554.36 159.5 554.36 C 154.70656959767274 554.36 150.82072727272728 550.473832064 150.82072727272728 545.6800000000001 Z" stroke-miterlimit="10"/></g><g transform="translate(-110,-222) scale(1,1)"><path fill="none" stroke="#000000" d="M 159.5 554.36 L 159.5 571.64" stroke-miterlimit="10"/></g><g transform="translate(-110,-222) scale(1,1)"><path fill="none" stroke="#000000" d="M 150.31018181818183 560.84 L 168.68981818181817 560.84" stroke-miterlimit="10"/></g><g transform="translate(-110,-222) scale(1,1)"><path fill="none" stroke="#000000" d="M 159.5 571.64 L 146.73636363636365 589" stroke-miterlimit="10"/></g><g transform="translate(-110,-222) scale(1,1)"><path fill="none" stroke="#000000" d="M 159.5 571.64 L 172.26363636363635 589" stroke-miterlimit="10"/></g><g transform="translate(-110,-222) scale(1,1)"><g><path fill="none" stroke="none"/><text fill="#000000" stroke="none" font-family="Arial" font-size="13px" font-style="normal" font-weight="bold" text-decoration="none" x="127" y="609.5">Enseignant</text></g></g><g transform="translate(-110,-222) scale(1,1)"><path fill="#C0C0C0" stroke="none" d="M 671 320 C 671 310.6111584 699.4299152 303 734.5 303 C 769.5700848 303 798 310.6111584 798 320 C 798 329.3888416 769.5700848 337 734.5 337 C 699.4299152 337 671 329.3888416 671 320 Z" opacity="0.2"/></g><g transform="translate(-110,-222) scale(1,1)"><path fill="#ffffff" stroke="none" d="M 664 313 C 664 303.6111584 692.4299152 296 727.5 296 C 762.5700848 296 791 303.6111584 791 313 C 791 322.3888416 762.5700848 330 727.5 330 C 692.4299152 330 664 322.3888416 664 313 Z"/></g><g transform="translate(-110,-222) scale(1,1)"><path fill="none" stroke="#000000" d="M 664 313 C 664 303.6111584 692.4299152 296 727.5 296 C 762.5700848 296 791 303.6111584 791 313 C 791 322.3888416 762.5700848 330 727.5 330 C 692.4299152 330 664 322.3888416 664 313 Z" stroke-miterlimit="10"/></g><g transform="translate(-110,-222) scale(1,1)"><g><path fill="none" stroke="none"/><text fill="#000000" stroke="none" font-family="Arial" font-size="13px" font-style="normal" font-weight="bold" text-decoration="none" x="689" y="320">Se connecter</text></g></g><g transform="translate(-110,-222) scale(1,1)"><path fill="none" stroke="#000000" d="M 190 379 L 663 321" stroke-miterlimit="10"/></g><g transform="translate(-110,-222) scale(1,1)"><path fill="none" stroke="#000000" d="M 200 556 L 688 331" stroke-miterlimit="10"/></g><g transform="translate(-110,-222) scale(1,1)"><path fill="#C0C0C0" stroke="none" d="M 647 448 C 647 438.6111584 690.652232 431 744.5 431 C 798.347768 431 842 438.6111584 842 448 C 842 457.3888416 798.347768 465 744.5 465 C 690.652232 465 647 457.3888416 647 448 Z" opacity="0.2"/></g><g transform="translate(-110,-222) scale(1,1)"><path fill="#ffffff" stroke="none" d="M 640 441 C 640 431.6111584 683.652232 424 737.5 424 C 791.347768 424 835 431.6111584 835 441 C 835 450.3888416 791.347768 458 737.5 458 C 683.652232 458 640 450.3888416 640 441 Z"/></g><g transform="translate(-110,-222) scale(1,1)"><path fill="none" stroke="#000000" d="M 640 441 C 640 431.6111584 683.652232 424 737.5 424 C 791.347768 424 835 431.6111584 835 441 C 835 450.3888416 791.347768 458 737.5 458 C 683.652232 458 640 450.3888416 640 441 Z" stroke-miterlimit="10"/></g><g transform="translate(-110,-222) scale(1,1)"><g><path fill="none" stroke="none"/><text fill="#000000" stroke="none" font-family="Arial" font-size="13px" font-style="normal" font-weight="bold" text-decoration="none" x="678.5" y="448">S'inscrire à un cours</text></g></g><g transform="translate(-110,-222) scale(1,1)"><path fill="none" stroke="#000000" d="M 190 386 L 639 431" stroke-miterlimit="10"/></g><g transform="translate(-110,-222) scale(1,1)"><path fill="none" stroke="#000000" d="M 736 423 L 728 331" stroke-miterlimit="10" stroke-dasharray="3"/></g><g transform="translate(-110,-222) scale(1,1)"><path fill="none" stroke="#000000" d="M 733.0740810694301 340.7598002695163 L 728 331 L 724.686696178883 341.48913808608563" stroke-miterlimit="10"/></g><g transform="translate(-110,-222) scale(1,1)"><g><path fill="none" stroke="none"/><text fill="#000000" stroke="none" font-family="Arial" font-size="13px" font-style="normal" font-weight="normal" text-decoration="none" x="674.5" y="385.5">«include»</text></g></g><g transform="translate(-110,-222) scale(1,1)"><path fill="#C0C0C0" stroke="none" d="M 463 544 C 463 534.6111584 495.0116368 527 534.5 527 C 573.9883632 527 606 534.6111584 606 544 C 606 553.3888416 573.9883632 561 534.5 561 C 495.0116368 561 463 553.3888416 463 544 Z" opacity="0.2"/></g><g transform="translate(-110,-222) scale(1,1)"><path fill="#ffffff" stroke="none" d="M 456 537 C 456 527.6111584 488.0116368 520 527.5 520 C 566.9883632 520 599 527.6111584 599 537 C 599 546.3888416 566.9883632 554 527.5 554 C 488.0116368 554 456 546.3888416 456 537 Z"/></g><g transform="translate(-110,-222) scale(1,1)"><path fill="none" stroke="#000000" d="M 456 537 C 456 527.6111584 488.0116368 520 527.5 520 C 566.9883632 520 599 527.6111584 599 537 C 599 546.3888416 566.9883632 554 527.5 554 C 488.0116368 554 456 546.3888416 456 537 Z" stroke-miterlimit="10"/></g><g transform="translate(-110,-222) scale(1,1)"><g><path fill="none" stroke="none"/><text fill="#000000" stroke="none" font-family="Arial" font-size="13px" font-style="normal" font-weight="bold" text-decoration="none" x="485" y="544">Créer un cours</text></g></g><g transform="translate(-110,-222) scale(1,1)"><path fill="none" stroke="#000000" d="M 200 571 L 455 544" stroke-miterlimit="10"/></g><g transform="translate(-110,-222) scale(1,1)"><path fill="none" stroke="#000000" d="M 698 459 L 566 519" stroke-miterlimit="10" stroke-dasharray="3"/></g><g transform="translate(-110,-222) scale(1,1)"><path fill="none" stroke="#000000" d="M 573.5098476702055 510.96245137057895 L 566 519 L 576.9936693532607 518.6268590733001" stroke-miterlimit="10"/></g><g transform="translate(-110,-222) scale(1,1)"><g><path fill="none" stroke="none"/><text fill="#000000" stroke="none" font-family="Arial" font-size="13px" font-style="normal" font-weight="normal" text-decoration="none" x="616.5" y="522.5">«include»</text></g></g><g transform="translate(-110,-222) scale(1,1)"><path fill="#C0C0C0" stroke="none" d="M 503 648 C 503 638.6111584 550.6816688 631 609.5 631 C 668.3183312 631 716 638.6111584 716 648 C 716 657.3888416 668.3183312 665 609.5 665 C 550.6816688 665 503 657.3888416 503 648 Z" opacity="0.2"/></g><g transform="translate(-110,-222) scale(1,1)"><path fill="#ffffff" stroke="none" d="M 496 641 C 496 631.6111584 543.6816688 624 602.5 624 C 661.3183312 624 709 631.6111584 709 641 C 709 650.3888416 661.3183312 658 602.5 658 C 543.6816688 658 496 650.3888416 496 641 Z"/></g><g transform="translate(-110,-222) scale(1,1)"><path fill="none" stroke="#000000" d="M 496 641 C 496 631.6111584 543.6816688 624 602.5 624 C 661.3183312 624 709 631.6111584 709 641 C 709 650.3888416 661.3183312 658 602.5 658 C 543.6816688 658 496 650.3888416 496 641 Z" stroke-miterlimit="10"/></g><g transform="translate(-110,-222) scale(1,1)"><g><path fill="none" stroke="none"/><text fill="#000000" stroke="none" font-family="Arial" font-size="13px" font-style="normal" font-weight="bold" text-decoration="none" x="537.5" y="648">Créer un questionnaire</text></g></g><g transform="translate(-110,-222) scale(1,1)"><path fill="none" stroke="#000000" d="M 589 623 L 540 555" stroke-miterlimit="10" stroke-dasharray="3"/></g><g transform="translate(-110,-222) scale(1,1)"><path fill="none" stroke="#000000" d="M 549.3565080288705 560.7840952192786 L 540 555 L 542.5260773228601 565.7060232280213" stroke-miterlimit="10"/></g><g transform="translate(-110,-222) scale(1,1)"><g><path fill="none" stroke="none"/><text fill="#000000" stroke="none" font-family="Arial" font-size="13px" font-style="normal" font-weight="normal" text-decoration="none" x="511.5" y="612.5">«include»</text></g></g><g transform="translate(-110,-222) scale(1,1)"><path fill="#C0C0C0" stroke="none" d="M 751 544 C 751 534.6111584 810.7699792 527 884.5 527 C 958.2300208 527 1018 534.6111584 1018 544 C 1018 553.3888416 958.2300208 561 884.5 561 C 810.7699792 561 751 553.3888416 751 544 Z" opacity="0.2"/></g><g transform="translate(-110,-222) scale(1,1)"><path fill="#ffffff" stroke="none" d="M 744 537 C 744 527.6111584 803.7699792 520 877.5 520 C 951.2300208 520 1011 527.6111584 1011 537 C 1011 546.3888416 951.2300208 554 877.5 554 C 803.7699792 554 744 546.3888416 744 537 Z"/></g><g transform="translate(-110,-222) scale(1,1)"><path fill="none" stroke="#000000" d="M 744 537 C 744 527.6111584 803.7699792 520 877.5 520 C 951.2300208 520 1011 527.6111584 1011 537 C 1011 546.3888416 951.2300208 554 877.5 554 C 803.7699792 554 744 546.3888416 744 537 Z" stroke-miterlimit="10"/></g><g transform="translate(-110,-222) scale(1,1)"><g><path fill="none" stroke="none"/><text fill="#000000" stroke="none" font-family="Arial" font-size="13px" font-style="normal" font-weight="bold" text-decoration="none" x="795" y="544">Répondre à un questionnaire</text></g></g><g transform="translate(-110,-222) scale(1,1)"><path fill="none" stroke="#000000" d="M 851 519 L 763 459" stroke-miterlimit="10" stroke-dasharray="3"/></g><g transform="translate(-110,-222) scale(1,1)"><path fill="none" stroke="#000000" d="M 773.768056209378 461.2469903141038 L 763 459 L 769.0253034774857 468.2030276542124" stroke-miterlimit="10"/></g><g transform="translate(-110,-222) scale(1,1)"><g><path fill="none" stroke="none"/><text fill="#000000" stroke="none" font-family="Arial" font-size="13px" font-style="normal" font-weight="normal" text-decoration="none" x="763.5" y="519.5">«extend»</text></g></g><g transform="translate(-110,-222) scale(1,1)"><path fill="#C0C0C0" stroke="none" d="M 823 632 C 823 622.6111584 854.1162064 615 892.5 615 C 930.8837936 615 962 622.6111584 962 632 C 962 641.3888416 930.8837936 649 892.5 649 C 854.1162064 649 823 641.3888416 823 632 Z" opacity="0.2"/></g><g transform="translate(-110,-222) scale(1,1)"><path fill="#ffffff" stroke="none" d="M 816 625 C 816 615.6111584 847.1162064 608 885.5 608 C 923.8837936 608 955 615.6111584 955 625 C 955 634.3888416 923.8837936 642 885.5 642 C 847.1162064 642 816 634.3888416 816 625 Z"/></g><g transform="translate(-110,-222) scale(1,1)"><path fill="none" stroke="#000000" d="M 816 625 C 816 615.6111584 847.1162064 608 885.5 608 C 923.8837936 608 955 615.6111584 955 625 C 955 634.3888416 923.8837936 642 885.5 642 C 847.1162064 642 816 634.3888416 816 625 Z" stroke-miterlimit="10"/></g><g transform="translate(-110,-222) scale(1,1)"><g><path fill="none" stroke="none"/><text fill="#000000" stroke="none" font-family="Arial" font-size="13px" font-style="normal" font-weight="bold" text-decoration="none" x="843.5" y="632">Voir ses notes</text></g></g><g transform="translate(-110,-222) scale(1,1)"><path fill="none" stroke="#000000" d="M 883 607 L 879 555" stroke-miterlimit="10" stroke-dasharray="3"/></g><g transform="translate(-110,-222) scale(1,1)"><path fill="none" stroke="#000000" d="M 883.976560141318 564.8098852776087 L 879 555 L 875.5823230204494 565.4555958253678" stroke-miterlimit="10"/></g><g transform="translate(-110,-222) scale(1,1)"><g><path fill="none" stroke="none"/><text fill="#000000" stroke="none" font-family="Arial" font-size="13px" font-style="normal" font-weight="normal" text-decoration="none" x="823.5" y="589.5">«include»</text></g></g><g transform="translate(-110,-222) scale(1,1)"><path fill="none" stroke="#000000" d="M 543 519 L 711 331" stroke-miterlimit="10" stroke-dasharray="3"/></g><g transform="translate(-110,-222) scale(1,1)"><path fill="none" stroke="#000000" d="M 707.3671474622508 341.38279261273044 L 711 331 L 701.0894422713916 335.7729283996221" stroke-miterlimit="10"/></g><g transform="translate(-110,-222) scale(1,1)"><g><path fill="none" stroke="none"/><text fill="#000000" stroke="none" font-family="Arial" font-size="13px" font-style="normal" font-weight="normal" text-decoration="none" x="576.5" y="411.5">«include»</text></g></g><g transform="translate(-110,-222) scale(1,1)"><path fill="#C0C0C0" stroke="none" d="M 511 752 C 511 742.6111584 553.7568016 735 606.5 735 C 659.2431984 735 702 742.6111584 702 752 C 702 761.3888416 659.2431984 769 606.5 769 C 553.7568016 769 511 761.3888416 511 752 Z" opacity="0.2"/></g><g transform="translate(-110,-222) scale(1,1)"><path fill="#ffffff" stroke="none" d="M 504 745 C 504 735.6111584 546.7568016 728 599.5 728 C 652.2431984 728 695 735.6111584 695 745 C 695 754.3888416 652.2431984 762 599.5 762 C 546.7568016 762 504 754.3888416 504 745 Z"/></g><g transform="translate(-110,-222) scale(1,1)"><path fill="none" stroke="#000000" d="M 504 745 C 504 735.6111584 546.7568016 728 599.5 728 C 652.2431984 728 695 735.6111584 695 745 C 695 754.3888416 652.2431984 762 599.5 762 C 546.7568016 762 504 754.3888416 504 745 Z" stroke-miterlimit="10"/></g><g transform="translate(-110,-222) scale(1,1)"><g><path fill="none" stroke="none"/><text fill="#000000" stroke="none" font-family="Arial" font-size="13px" font-style="normal" font-weight="bold" text-decoration="none" x="542" y="752">Editer questionnaire</text></g></g><g transform="translate(-110,-222) scale(1,1)"><path fill="none" stroke="#000000" d="M 600 727 L 601 659" stroke-miterlimit="10" stroke-dasharray="3"/></g><g transform="translate(-110,-222) scale(1,1)"><path fill="none" stroke="#000000" d="M 605.0596277053154 669.2234741108018 L 601 659 L 596.6415024084882 669.0996781505544" stroke-miterlimit="10"/></g><g transform="translate(-110,-222) scale(1,1)"><g><path fill="none" stroke="none"/><text fill="#000000" stroke="none" font-family="Arial" font-size="13px" font-style="normal" font-weight="normal" text-decoration="none" x="543.5" y="698.5">«extend»</text></g></g><g transform="translate(-110,-222) scale(1,1)"><path fill="#C0C0C0" stroke="none" d="M 807 752 C 807 742.6111584 858.9349632 735 923 735 C 987.0650368 735 1039 742.6111584 1039 752 C 1039 761.3888416 987.0650368 769 923 769 C 858.9349632 769 807 761.3888416 807 752 Z" opacity="0.2"/></g><g transform="translate(-110,-222) scale(1,1)"><path fill="#ffffff" stroke="none" d="M 800 745 C 800 735.6111584 851.9349632 728 916 728 C 980.0650368 728 1032 735.6111584 1032 745 C 1032 754.3888416 980.0650368 762 916 762 C 851.9349632 762 800 754.3888416 800 745 Z"/></g><g transform="translate(-110,-222) scale(1,1)"><path fill="none" stroke="#000000" d="M 800 745 C 800 735.6111584 851.9349632 728 916 728 C 980.0650368 728 1032 735.6111584 1032 745 C 1032 754.3888416 980.0650368 762 916 762 C 851.9349632 762 800 754.3888416 800 745 Z" stroke-miterlimit="10"/></g><g transform="translate(-110,-222) scale(1,1)"><g><path fill="none" stroke="none"/><text fill="#000000" stroke="none" font-family="Arial" font-size="13px" font-style="normal" font-weight="bold" text-decoration="none" x="846" y="752">Supprimer questionnaire</text></g></g><g transform="translate(-110,-222) scale(1,1)"><path fill="none" stroke="#000000" d="M 862 727 L 656 659" stroke-miterlimit="10" stroke-dasharray="3"/></g><g transform="translate(-110,-222) scale(1,1)"><path fill="none" stroke="#000000" d="M 666.9700062664732 658.1882349394443 L 656 659 L 664.3309703997313 666.1829612416329" stroke-miterlimit="10"/></g><g transform="translate(-110,-222) scale(1,1)"><g><path fill="none" stroke="none"/><text fill="#000000" stroke="none" font-family="Arial" font-size="13px" font-style="normal" font-weight="normal" text-decoration="none" x="722.5" y="727.5">«extend»</text></g></g><g transform="translate(-110,-222) scale(1,1)"><path fill="#C0C0C0" stroke="none" d="M 503 832 C 503 822.6111584 540.3842192 815 586.5 815 C 632.6157808 815 670 822.6111584 670 832 C 670 841.3888416 632.6157808 849 586.5 849 C 540.3842192 849 503 841.3888416 503 832 Z" opacity="0.2"/></g><g transform="translate(-110,-222) scale(1,1)"><path fill="#ffffff" stroke="none" d="M 496 825 C 496 815.6111584 533.3842192 808 579.5 808 C 625.6157808 808 663 815.6111584 663 825 C 663 834.3888416 625.6157808 842 579.5 842 C 533.3842192 842 496 834.3888416 496 825 Z"/></g><g transform="translate(-110,-222) scale(1,1)"><path fill="none" stroke="#000000" d="M 496 825 C 496 815.6111584 533.3842192 808 579.5 808 C 625.6157808 808 663 815.6111584 663 825 C 663 834.3888416 625.6157808 842 579.5 842 C 533.3842192 842 496 834.3888416 496 825 Z" stroke-miterlimit="10"/></g><g transform="translate(-110,-222) scale(1,1)"><g><path fill="none" stroke="none"/><text fill="#000000" stroke="none" font-family="Arial" font-size="13px" font-style="normal" font-weight="bold" text-decoration="none" x="528.5" y="832">Donner des notes</text></g></g><g transform="translate(-110,-222) scale(1,1)"><path fill="none" stroke="#000000" d="M 200 599 L 549 807" stroke-miterlimit="10"/></g></g></svg>