<svg version="1.1" xmlns="http://www.w3.org/2000/svg" xmlns:xlink="http://www.w3.org/1999/xlink" width="918" height="624"><defs/><g><g transform="translate(-678,-750) scale(1,1)"><rect fill="#C0C0C0" stroke="none" x="1055" y="903" width="50" height="44" opacity="0.2"/></g><g transform="translate(-678,-750) scale(1,1)"><rect fill="#ffffff" stroke="none" x="1048" y="896" width="50" height="44"/></g><g transform="translate(-678,-750) scale(1,1)"><path fill="none" stroke="#000000" d="M 1048 896 L 1098 896 L 1098 940 L 1048 940 L 1048 896 Z Z" stroke-miterlimit="10"/></g><g transform="translate(-678,-750) scale(1,1)"><path fill="none" stroke="#000000" d="M 1048 921 L 1098 921" stroke-miterlimit="10"/></g><g transform="translate(-678,-750) scale(1,1)"><path fill="none" stroke="#000000" d="M 1048 931 L 1098 931" stroke-miterlimit="10"/></g><g transform="translate(-678,-750) scale(1,1)"><g><path fill="none" stroke="none"/><text fill="#000000" stroke="none" font-family="Arial" font-size="13px" font-style="normal" font-weight="bold" text-decoration="none" x="1056" y="915.5">Cours</text></g></g><g transform="translate(-678,-750) scale(1,1)"><rect fill="#C0C0C0" stroke="none" x="1319" y="767" width="103" height="44" opacity="0.2"/></g><g transform="translate(-678,-750) scale(1,1)"><rect fill="#ffffff" stroke="none" x="1312" y="760" width="103" height="44"/></g><g transform="translate(-678,-750) scale(1,1)"><path fill="none" stroke="#000000" d="M 1312 760 L 1415 760 L 1415 804 L 1312 804 L 1312 760 Z Z" stroke-miterlimit="10"/></g><g transform="translate(-678,-750) scale(1,1)"><path fill="none" stroke="#000000" d="M 1312 785 L 1415 785" stroke-miterlimit="10"/></g><g transform="translate(-678,-750) scale(1,1)"><path fill="none" stroke="#000000" d="M 1312 795 L 1415 795" stroke-miterlimit="10"/></g><g transform="translate(-678,-750) scale(1,1)"><g><path fill="none" stroke="none"/><text fill="#000000" stroke="none" font-family="Arial" font-size="13px" font-style="normal" font-weight="bold" text-decoration="none" x="1323.5" y="779.5">Questionnaire</text></g></g><g transform="translate(-678,-750) scale(1,1)"><path fill="none" stroke="#000000" d="M 1314 805 L 1099 906" stroke-miterlimit="10"/></g><g transform="translate(-678,-750) scale(1,1)"><path fill="#000000" stroke="none" d="M 1106.408445442642 897.8688908429787 L 1099 906 L 1109.9881244340406 905.4889995870449 L 1118.9123037466552 896.6458480073852"/></g><g transform="translate(-678,-750) scale(1,1)"><path fill="none" stroke="#000000" d="M 1106.408445442642 897.8688908429787 L 1099 906 L 1109.9881244340406 905.4889995870449 L 1118.9123037466552 896.6458480073852 L 1106.408445442642 897.8688908429787" stroke-miterlimit="10"/></g><g transform="translate(-678,-750) scale(1,1)"><g><path fill="none" stroke="none"/><text fill="#000000" stroke="none" font-family="Arial" font-size="13px" font-style="normal" font-weight="normal" text-decoration="none" x="1278.5" y="808.5">0..*</text></g></g><g transform="translate(-678,-750) scale(1,1)"><g><path fill="none" stroke="none"/><text fill="#000000" stroke="none" font-family="Arial" font-size="13px" font-style="normal" font-weight="normal" text-decoration="none" x="1109.5" y="891.5">1</text></g></g><g transform="translate(-678,-750) scale(1,1)"><rect fill="#C0C0C0" stroke="none" x="1335" y="903" width="73" height="57" opacity="0.2"/></g><g transform="translate(-678,-750) scale(1,1)"><rect fill="#ffffff" stroke="none" x="1328" y="896" width="73" height="57"/></g><g transform="translate(-678,-750) scale(1,1)"><path fill="none" stroke="#000000" d="M 1328 896 L 1401 896 L 1401 953 L 1328 953 L 1328 896 Z Z" stroke-miterlimit="10"/></g><g transform="translate(-678,-750) scale(1,1)"><path fill="none" stroke="#000000" d="M 1328 921 L 1401 921" stroke-miterlimit="10"/></g><g transform="translate(-678,-750) scale(1,1)"><path fill="none" stroke="#000000" d="M 1328 944 L 1401 944" stroke-miterlimit="10"/></g><g transform="translate(-678,-750) scale(1,1)"><g><path fill="none" stroke="none"/><text fill="#000000" stroke="none" font-family="Arial" font-size="13px" font-style="normal" font-weight="bold" text-decoration="none" x="1338.5" y="915.5">Question</text></g></g><g transform="translate(-678,-750) scale(1,1)"><g><path fill="none" stroke="none"/><text fill="#000000" stroke="none" font-family="Arial" font-size="13px" font-style="normal" font-weight="normal" text-decoration="none" x="1333" y="938.5">#enonce</text></g></g><g transform="translate(-678,-750) scale(1,1)"><path fill="none" stroke="#000000" d="M 1364 895 L 1363 805" stroke-miterlimit="10"/></g><g transform="translate(-678,-750) scale(1,1)"><path fill="#000000" stroke="none" d="M 1367.3221695731884 815.1152780575031 L 1363 805 L 1358.9036537065915 815.2088171226876 L 1363.2444293566782 826.9986421010387"/></g><g transform="translate(-678,-750) scale(1,1)"><path fill="none" stroke="#000000" d="M 1367.3221695731884 815.1152780575031 L 1363 805 L 1358.9036537065915 815.2088171226876 L 1363.2444293566782 826.9986421010387 L 1367.3221695731884 815.1152780575031" stroke-miterlimit="10"/></g><g transform="translate(-678,-750) scale(1,1)"><g><path fill="none" stroke="none"/><text fill="#000000" stroke="none" font-family="Arial" font-size="13px" font-style="normal" font-weight="normal" text-decoration="none" x="1365.5" y="879.5">1..*</text></g></g><g transform="translate(-678,-750) scale(1,1)"><g><path fill="none" stroke="none"/><text fill="#000000" stroke="none" font-family="Arial" font-size="13px" font-style="normal" font-weight="normal" text-decoration="none" x="1371.5" y="832.5">1</text></g></g><g transform="translate(-678,-750) scale(1,1)"><rect fill="#C0C0C0" stroke="none" x="1295" y="1047" width="151" height="72" opacity="0.2"/></g><g transform="translate(-678,-750) scale(1,1)"><rect fill="#ffffff" stroke="none" x="1288" y="1040" width="151" height="72"/></g><g transform="translate(-678,-750) scale(1,1)"><path fill="none" stroke="#000000" d="M 1288 1040 L 1439 1040 L 1439 1112 L 1288 1112 L 1288 1040 Z Z" stroke-miterlimit="10"/></g><g transform="translate(-678,-750) scale(1,1)"><path fill="none" stroke="#000000" d="M 1288 1065 L 1439 1065" stroke-miterlimit="10"/></g><g transform="translate(-678,-750) scale(1,1)"><path fill="none" stroke="#000000" d="M 1288 1103 L 1439 1103" stroke-miterlimit="10"/></g><g transform="translate(-678,-750) scale(1,1)"><g><path fill="none" stroke="none"/><text fill="#000000" stroke="none" font-family="Arial" font-size="13px" font-style="normal" font-weight="bold" text-decoration="none" x="1298.5" y="1059.5">QuestionChoixMultiple</text></g></g><g transform="translate(-678,-750) scale(1,1)"><g><path fill="none" stroke="none"/><text fill="#000000" stroke="none" font-family="Arial" font-size="13px" font-style="normal" font-weight="normal" text-decoration="none" x="1293" y="1082.5">-choix_possibles</text></g></g><g transform="translate(-678,-750) scale(1,1)"><g><path fill="none" stroke="none"/><text fill="#000000" stroke="none" font-family="Arial" font-size="13px" font-style="normal" font-weight="normal" text-decoration="none" x="1293" y="1097.5">-bonne_reponse</text></g></g><g transform="translate(-678,-750) scale(1,1)"><path fill="none" stroke="#000000" d="M 1363 1039 L 1364 954" stroke-miterlimit="10"/></g><g transform="translate(-678,-750) scale(1,1)"><path fill="#FFFFFF" stroke="none" d="M 1372.1793477254357 974.4229838854759 L 1364 954 L 1355.3424418448549 974.2249026398221"/></g><g transform="translate(-678,-750) scale(1,1)"><path fill="none" stroke="#000000" d="M 1372.1793477254357 974.4229838854759 L 1364 954 L 1355.3424418448549 974.2249026398221 L 1372.1793477254357 974.4229838854759" stroke-miterlimit="10"/></g><g transform="translate(-678,-750) scale(1,1)"><rect fill="#C0C0C0" stroke="none" x="1543" y="911" width="50" height="44" opacity="0.2"/></g><g transform="translate(-678,-750) scale(1,1)"><rect fill="#ffffff" stroke="none" x="1536" y="904" width="50" height="44"/></g><g transform="translate(-678,-750) scale(1,1)"><path fill="none" stroke="#000000" d="M 1536 904 L 1586 904 L 1586 948 L 1536 948 L 1536 904 Z Z" stroke-miterlimit="10"/></g><g transform="translate(-678,-750) scale(1,1)"><path fill="none" stroke="#000000" d="M 1536 929 L 1586 929" stroke-miterlimit="10"/></g><g transform="translate(-678,-750) scale(1,1)"><path fill="none" stroke="#000000" d="M 1536 939 L 1586 939" stroke-miterlimit="10"/></g><g transform="translate(-678,-750) scale(1,1)"><g><path fill="none" stroke="none"/><text fill="#000000" stroke="none" font-family="Arial" font-size="13px" font-style="normal" font-weight="bold" text-decoration="none" x="1543.5" y="923.5">Media</text></g></g><g transform="translate(-678,-750) scale(1,1)"><path fill="none" stroke="#000000" d="M 1535 926 L 1402 924" stroke-miterlimit="10"/></g><g transform="translate(-678,-750) scale(1,1)"><path fill="#FFFFFF" stroke="none" d="M 1412.224819876522 919.9437630132495 L 1402 924 L 1412.0982321505305 928.3618467916687 L 1423.997513000218 924.3307896691762"/></g><g transform="translate(-678,-750) scale(1,1)"><path fill="none" stroke="#000000" d="M 1412.224819876522 919.9437630132495 L 1402 924 L 1412.0982321505305 928.3618467916687 L 1423.997513000218 924.3307896691762 L 1412.224819876522 919.9437630132495" stroke-miterlimit="10"/></g><g transform="translate(-678,-750) scale(1,1)"><rect fill="#C0C0C0" stroke="none" x="1335" y="1199" width="63" height="44" opacity="0.2"/></g><g transform="translate(-678,-750) scale(1,1)"><rect fill="#ffffff" stroke="none" x="1328" y="1192" width="63" height="44"/></g><g transform="translate(-678,-750) scale(1,1)"><path fill="none" stroke="#000000" d="M 1328 1192 L 1391 1192 L 1391 1236 L 1328 1236 L 1328 1192 Z Z" stroke-miterlimit="10"/></g><g transform="translate(-678,-750) scale(1,1)"><path fill="none" stroke="#000000" d="M 1328 1217 L 1391 1217" stroke-miterlimit="10"/></g><g transform="translate(-678,-750) scale(1,1)"><path fill="none" stroke="#000000" d="M 1328 1227 L 1391 1227" stroke-miterlimit="10"/></g><g transform="translate(-678,-750) scale(1,1)"><g><path fill="none" stroke="none"/><text fill="#000000" stroke="none" font-family="Arial" font-size="13px" font-style="normal" font-weight="bold" text-decoration="none" x="1334" y="1211.5">Reponse</text></g></g><g transform="translate(-678,-750) scale(1,1)"><path fill="none" stroke="#000000" d="M 1360 1191 L 1362 1113" stroke-miterlimit="10"/></g><g transform="translate(-678,-750) scale(1,1)"><path fill="#000000" stroke="none" d="M 1365.9476388509854 1123.267236604958 L 1362 1113 L 1357.5313695737946 1123.05143482862 L 1361.436082782564 1134.9927714800085"/></g><g transform="translate(-678,-750) scale(1,1)"><path fill="none" stroke="#000000" d="M 1365.9476388509854 1123.267236604958 L 1362 1113 L 1357.5313695737946 1123.05143482862 L 1361.436082782564 1134.9927714800085 L 1365.9476388509854 1123.267236604958" stroke-miterlimit="10"/></g><g transform="translate(-678,-750) scale(1,1)"><g><path fill="none" stroke="none"/><text fill="#000000" stroke="none" font-family="Arial" font-size="13px" font-style="normal" font-weight="normal" text-decoration="none" x="1362.5" y="1175.5">1..*</text></g></g><g transform="translate(-678,-750) scale(1,1)"><g><path fill="none" stroke="none"/><text fill="#000000" stroke="none" font-family="Arial" font-size="13px" font-style="normal" font-weight="normal" text-decoration="none" x="1369.5" y="1140.5">1</text></g></g><g transform="translate(-678,-750) scale(1,1)"><rect fill="#C0C0C0" stroke="none" x="1167" y="1327" width="119" height="44" opacity="0.2"/></g><g transform="translate(-678,-750) scale(1,1)"><rect fill="#ffffff" stroke="none" x="1160" y="1320" width="119" height="44"/></g><g transform="translate(-678,-750) scale(1,1)"><path fill="none" stroke="#000000" d="M 1160 1320 L 1279 1320 L 1279 1364 L 1160 1364 L 1160 1320 Z Z" stroke-miterlimit="10"/></g><g transform="translate(-678,-750) scale(1,1)"><path fill="none" stroke="#000000" d="M 1160 1345 L 1279 1345" stroke-miterlimit="10"/></g><g transform="translate(-678,-750) scale(1,1)"><path fill="none" stroke="#000000" d="M 1160 1355 L 1279 1355" stroke-miterlimit="10"/></g><g transform="translate(-678,-750) scale(1,1)"><g><path fill="none" stroke="none"/><text fill="#000000" stroke="none" font-family="Arial" font-size="13px" font-style="normal" font-weight="bold" text-decoration="none" x="1167.5" y="1339.5">ReponseTextuelle</text></g></g><g transform="translate(-678,-750) scale(1,1)"><path fill="none" stroke="#000000" d="M 1244 1319 L 1334 1237" stroke-miterlimit="10"/></g><g transform="translate(-678,-750) scale(1,1)"><path fill="#FFFFFF" stroke="none" d="M 1324.645712131528 1256.9122399160356 L 1334 1237 L 1313.3054397417902 1244.4655994882746"/></g><g transform="translate(-678,-750) scale(1,1)"><path fill="none" stroke="#000000" d="M 1324.645712131528 1256.9122399160356 L 1334 1237 L 1313.3054397417902 1244.4655994882746 L 1324.645712131528 1256.9122399160356" stroke-miterlimit="10"/></g><g transform="translate(-678,-750) scale(1,1)"><rect fill="#C0C0C0" stroke="none" x="1439" y="1327" width="100" height="44" opacity="0.2"/></g><g transform="translate(-678,-750) scale(1,1)"><rect fill="#ffffff" stroke="none" x="1432" y="1320" width="100" height="44"/></g><g transform="translate(-678,-750) scale(1,1)"><path fill="none" stroke="#000000" d="M 1432 1320 L 1532 1320 L 1532 1364 L 1432 1364 L 1432 1320 Z Z" stroke-miterlimit="10"/></g><g transform="translate(-678,-750) scale(1,1)"><path fill="none" stroke="#000000" d="M 1432 1345 L 1532 1345" stroke-miterlimit="10"/></g><g transform="translate(-678,-750) scale(1,1)"><path fill="none" stroke="#000000" d="M 1432 1355 L 1532 1355" stroke-miterlimit="10"/></g><g transform="translate(-678,-750) scale(1,1)"><g><path fill="none" stroke="none"/><text fill="#000000" stroke="none" font-family="Arial" font-size="13px" font-style="normal" font-weight="bold" text-decoration="none" x="1439" y="1339.5">ReponseMedia</text></g></g><g transform="translate(-678,-750) scale(1,1)"><path fill="none" stroke="#000000" d="M 1460 1319 L 1381 1237" stroke-miterlimit="10"/></g><g transform="translate(-678,-750) scale(1,1)"><path fill="#FFFFFF" stroke="none" d="M 1401.1649728526706 1245.7962418026711 L 1381 1237 L 1389.0389068189406 1257.4786712741914"/></g><g transform="translate(-678,-750) scale(1,1)"><path fill="none" stroke="#000000" d="M 1401.1649728526706 1245.7962418026711 L 1381 1237 L 1389.0389068189406 1257.4786712741914 L 1401.1649728526706 1245.7962418026711" stroke-miterlimit="10"/></g><g transform="translate(-678,-750) scale(1,1)"><path fill="none" stroke="#000000" d="M 1557 949 L 1486 1319" stroke-miterlimit="10"/></g><g transform="translate(-678,-750) scale(1,1)"><path fill="#000000" stroke="none" d="M 1483.7811005534443 1308.2261202324291 L 1486 1319 L 1492.0492845979074 1309.8127177112315 L 1490.1459790119388 1297.3941938814455"/></g><g transform="translate(-678,-750) scale(1,1)"><path fill="none" stroke="#000000" d="M 1483.7811005534443 1308.2261202324291 L 1486 1319 L 1492.0492845979074 1309.8127177112315 L 1490.1459790119388 1297.3941938814455 L 1483.7811005534443 1308.2261202324291" stroke-miterlimit="10"/></g><g transform="translate(-678,-750) scale(1,1)"><rect fill="#C0C0C0" stroke="none" x="791" y="927" width="72" height="44" opacity="0.2"/></g><g transform="translate(-678,-750) scale(1,1)"><rect fill="#ffffff" stroke="none" x="784" y="920" width="72" height="44"/></g><g transform="translate(-678,-750) scale(1,1)"><path fill="none" stroke="#000000" d="M 784 920 L 856 920 L 856 964 L 784 964 L 784 920 Z Z" stroke-miterlimit="10"/></g><g transform="translate(-678,-750) scale(1,1)"><path fill="none" stroke="#000000" d="M 784 945 L 856 945" stroke-miterlimit="10"/></g><g transform="translate(-678,-750) scale(1,1)"><path fill="none" stroke="#000000" d="M 784 955 L 856 955" stroke-miterlimit="10"/></g><g transform="translate(-678,-750) scale(1,1)"><g><path fill="none" stroke="none"/><text fill="#000000" stroke="none" font-family="Arial" font-size="13px" font-style="normal" font-weight="bold" text-decoration="none" x="791" y="939.5">Utilisateur</text></g></g><g transform="translate(-678,-750) scale(1,1)"><rect fill="#C0C0C0" stroke="none" x="695" y="1071" width="61" height="44" opacity="0.2"/></g><g transform="translate(-678,-750) scale(1,1)"><rect fill="#ffffff" stroke="none" x="688" y="1064" width="61" height="44"/></g><g transform="translate(-678,-750) scale(1,1)"><path fill="none" stroke="#000000" d="M 688 1064 L 749 1064 L 749 1108 L 688 1108 L 688 1064 Z Z" stroke-miterlimit="10"/></g><g transform="translate(-678,-750) scale(1,1)"><path fill="none" stroke="#000000" d="M 688 1089 L 749 1089" stroke-miterlimit="10"/></g><g transform="translate(-678,-750) scale(1,1)"><path fill="none" stroke="#000000" d="M 688 1099 L 749 1099" stroke-miterlimit="10"/></g><g transform="translate(-678,-750) scale(1,1)"><g><path fill="none" stroke="none"/><text fill="#000000" stroke="none" font-family="Arial" font-size="13px" font-style="normal" font-weight="bold" text-decoration="none" x="694.5" y="1083.5">Etudiant</text></g></g><g transform="translate(-678,-750) scale(1,1)"><rect fill="#C0C0C0" stroke="none" x="903" y="1071" width="76" height="44" opacity="0.2"/></g><g transform="translate(-678,-750) scale(1,1)"><rect fill="#ffffff" stroke="none" x="896" y="1064" width="76" height="44"/></g><g transform="translate(-678,-750) scale(1,1)"><path fill="none" stroke="#000000" d="M 896 1064 L 972 1064 L 972 1108 L 896 1108 L 896 1064 Z Z" stroke-miterlimit="10"/></g><g transform="translate(-678,-750) scale(1,1)"><path fill="none" stroke="#000000" d="M 896 1089 L 972 1089" stroke-miterlimit="10"/></g><g transform="translate(-678,-750) scale(1,1)"><path fill="none" stroke="#000000" d="M 896 1099 L 972 1099" stroke-miterlimit="10"/></g><g transform="translate(-678,-750) scale(1,1)"><g><path fill="none" stroke="none"/><text fill="#000000" stroke="none" font-family="Arial" font-size="13px" font-style="normal" font-weight="bold" text-decoration="none" x="902.5" y="1083.5">Professeur</text></g></g><g transform="translate(-678,-750) scale(1,1)"><path fill="none" stroke="#000000" d="M 734 1063 L 804 965" stroke-miterlimit="10"/></g><g transform="translate(-678,-750) scale(1,1)"><path fill="#FFFFFF" stroke="none" d="M 799.0369814362186 986.4328823711502 L 804 965 L 785.3352794533815 976.6459523834094"/></g><g transform="translate(-678,-750) scale(1,1)"><path fill="none" stroke="#000000" d="M 799.0369814362186 986.4328823711502 L 804 965 L 785.3352794533815 976.6459523834094 L 799.0369814362186 986.4328823711502" stroke-miterlimit="10"/></g><g transform="translate(-678,-750) scale(1,1)"><path fill="none" stroke="#000000" d="M 916 1063 L 838 965" stroke-miterlimit="10"/></g><g transform="translate(-678,-750) scale(1,1)"><path fill="#FFFFFF" stroke="none" d="M 857.2447836092122 975.660126820756 L 838 965 L 844.0702690292765 986.1459649558067"/></g><g transform="translate(-678,-750) scale(1,1)"><path fill="none" stroke="#000000" d="M 857.2447836092122 975.660126820756 L 838 965 L 844.0702690292765 986.1459649558067 L 857.2447836092122 975.660126820756" stroke-miterlimit="10"/></g><g transform="translate(-678,-750) scale(1,1)"><rect fill="#C0C0C0" stroke="none" x="799" y="767" width="57" height="44" opacity="0.2"/></g><g transform="translate(-678,-750) scale(1,1)"><rect fill="#ffffff" stroke="none" x="792" y="760" width="57" height="44"/></g><g transform="translate(-678,-750) scale(1,1)"><path fill="none" stroke="#000000" d="M 792 760 L 849 760 L 849 804 L 792 804 L 792 760 Z Z" stroke-miterlimit="10"/></g><g transform="translate(-678,-750) scale(1,1)"><path fill="none" stroke="#000000" d="M 792 785 L 849 785" stroke-miterlimit="10"/></g><g transform="translate(-678,-750) scale(1,1)"><path fill="none" stroke="#000000" d="M 792 795 L 849 795" stroke-miterlimit="10"/></g><g transform="translate(-678,-750) scale(1,1)"><g><path fill="none" stroke="none"/><text fill="#000000" stroke="none" font-family="Arial" font-size="13px" font-style="normal" font-weight="bold" text-decoration="none" x="798" y="779.5">Serveur</text></g></g><g transform="translate(-678,-750) scale(1,1)"><path fill="none" stroke="#000000" d="M 820 919 L 820 805" stroke-miterlimit="10"/></g><g transform="translate(-678,-750) scale(1,1)"><path fill="#000000" stroke="none" d="M 824.209517756016 815.1626748576241 L 820 805 L 815.790482243984 815.1626748576241 L 820 827"/></g><g transform="translate(-678,-750) scale(1,1)"><path fill="none" stroke="#000000" d="M 824.209517756016 815.1626748576241 L 820 805 L 815.790482243984 815.1626748576241 L 820 827 L 824.209517756016 815.1626748576241" stroke-miterlimit="10"/></g><g transform="translate(-678,-750) scale(1,1)"><g><path fill="none" stroke="none"/><text fill="#000000" stroke="none" font-family="Arial" font-size="13px" font-style="normal" font-weight="normal" text-decoration="none" x="821.5" y="903.5">0..*</text></g></g><g transform="translate(-678,-750) scale(1,1)"><g><path fill="none" stroke="none"/><text fill="#000000" stroke="none" font-family="Arial" font-size="13px" font-style="normal" font-weight="normal" text-decoration="none" x="828.5" y="832.5">1</text></g></g><g transform="translate(-678,-750) scale(1,1)"><path fill="none" stroke="#000000" d="M 1054 941 L 953 1063" stroke-miterlimit="10"/></g><g transform="translate(-678,-750) scale(1,1)"><path fill="#000000" stroke="none" d="M 956.2381681125042 1052.4874233760147 L 953 1063 L 962.723244849537 1057.8562164124107 L 967.0293322948821 1046.0536778220235"/></g><g transform="translate(-678,-750) scale(1,1)"><path fill="none" stroke="#000000" d="M 956.2381681125042 1052.4874233760147 L 953 1063 L 962.723244849537 1057.8562164124107 L 967.0293322948821 1046.0536778220235 L 956.2381681125042 1052.4874233760147" stroke-miterlimit="10"/></g><g transform="translate(-678,-750) scale(1,1)"><g><path fill="none" stroke="none"/><text fill="#000000" stroke="none" font-family="Arial" font-size="13px" font-style="normal" font-weight="normal" text-decoration="none" x="1019.5" y="955.5">0..*</text></g></g><g transform="translate(-678,-750) scale(1,1)"><g><path fill="none" stroke="none"/><text fill="#000000" stroke="none" font-family="Arial" font-size="13px" font-style="normal" font-weight="normal" text-decoration="none" x="946.5" y="1044.5">0..*</text></g></g><g transform="translate(-678,-750) scale(1,1)"><path fill="none" stroke="#000000" d="M 1047 930 L 750 1071" stroke-miterlimit="10"/></g><g transform="translate(-678,-750) scale(1,1)"><path fill="#FFFFFF" stroke="none" d="M 757.3752751433246 1062.8387919668558 L 750 1071 L 760.9859526098718 1070.444261524051 L 769.8740497078521 1061.5648450881915"/></g><g transform="translate(-678,-750) scale(1,1)"><path fill="none" stroke="#000000" d="M 757.3752751433246 1062.8387919668558 L 750 1071 L 760.9859526098718 1070.444261524051 L 769.8740497078521 1061.5648450881915 L 757.3752751433246 1062.8387919668558" stroke-miterlimit="10"/></g><g transform="translate(-678,-750) scale(1,1)"><rect fill="#C0C0C0" stroke="none" x="831" y="1247" width="112" height="44" opacity="0.2"/></g><g transform="translate(-678,-750) scale(1,1)"><rect fill="#ffffff" stroke="none" x="824" y="1240" width="112" height="44"/></g><g transform="translate(-678,-750) scale(1,1)"><path fill="none" stroke="#000000" d="M 824 1240 L 936 1240 L 936 1284 L 824 1284 L 824 1240 Z Z" stroke-miterlimit="10"/></g><g transform="translate(-678,-750) scale(1,1)"><path fill="none" stroke="#000000" d="M 824 1265 L 936 1265" stroke-miterlimit="10"/></g><g transform="translate(-678,-750) scale(1,1)"><path fill="none" stroke="#000000" d="M 824 1275 L 936 1275" stroke-miterlimit="10"/></g><g transform="translate(-678,-750) scale(1,1)"><g><path fill="none" stroke="none"/><text fill="#000000" stroke="none" font-family="Arial" font-size="13px" font-style="normal" font-weight="bold" text-decoration="none" x="832" y="1259.5">FeuilleReponses</text></g></g><g transform="translate(-678,-750) scale(1,1)"><path fill="none" stroke="#000000" d="M 859 1239 L 739 1109" stroke-miterlimit="10"/></g><g transform="translate(-678,-750) scale(1,1)"><path fill="#000000" stroke="none" d="M 748.9863082938132 1113.612336356004 L 739 1109 L 742.7999719991309 1119.3228006280185 L 753.9221622601275 1125.1656757818048"/></g><g transform="translate(-678,-750) scale(1,1)"><path fill="none" stroke="#000000" d="M 748.9863082938132 1113.612336356004 L 739 1109 L 742.7999719991309 1119.3228006280185 L 753.9221622601275 1125.1656757818048 L 748.9863082938132 1113.612336356004" stroke-miterlimit="10"/></g><g transform="translate(-678,-750) scale(1,1)"><path fill="none" stroke="#000000" d="M 903 1239 L 1340 805" stroke-miterlimit="10"/></g><g transform="translate(-678,-750) scale(1,1)"><path fill="none" stroke="#000000" d="M 1047 904 L 850 798" stroke-miterlimit="10"/></g><g transform="translate(-678,-750) scale(1,1)"><path fill="#FFFFFF" stroke="none" d="M 860.9440092237411 799.108450319442 L 850 798 L 856.9547903979895 806.5223758729612 L 869.3735211051577 808.424331153029"/></g><g transform="translate(-678,-750) scale(1,1)"><path fill="none" stroke="#000000" d="M 860.9440092237411 799.108450319442 L 850 798 L 856.9547903979895 806.5223758729612 L 869.3735211051577 808.424331153029 L 860.9440092237411 799.108450319442" stroke-miterlimit="10"/></g></g></svg>